<?xml version="1.0" encoding="UTF-8"?>
<svg version="1.1" xmlns="http://www.w3.org/2000/svg" width="200" height="200">
<path d="M0 0 C66 0 132 0 200 0 C200 66 200 132 200 200 C134 200 68 200 0 200 C0 134 0 68 0 0 Z " fill="#E1E4E8" transform="translate(0,0)"/>
<path d="M0 0 C1.93797455 -0.00786278 1.93797455 -0.00786278 3.9151001 -0.0158844 C6.64174212 -0.02477929 9.36809075 -0.02243655 12.09472656 -0.01245117 C15.55535812 -0.00100085 19.01496318 -0.02112918 22.47546005 -0.05036831 C25.8170233 -0.07334967 29.15836014 -0.06625275 32.5 -0.0625 C34.33809235 -0.07935097 34.33809235 -0.07935097 36.21331787 -0.09654236 C50.13534296 0.01465383 62.41935313 4.54462438 72.703125 14.05859375 C83.22399381 25.23967903 86.71856434 37.37245353 86.890625 52.30859375 C86.90472412 53.22503662 86.91882324 54.14147949 86.93334961 55.08569336 C86.92698486 55.96104736 86.92062012 56.83640137 86.9140625 57.73828125 C86.91067871 58.52187012 86.90729492 59.30545898 86.90380859 60.11279297 C86.39160082 63.17508674 85.38793215 64.95683883 83.515625 67.43359375 C81.09336853 68.06279945 81.09336853 68.06279945 78.16381836 68.06851196 C77.05336151 68.08261108 75.94290466 68.09671021 74.79879761 68.11123657 C73.57999908 68.10111542 72.36120056 68.09099426 71.10546875 68.08056641 C69.82237823 68.089328 68.53928772 68.0980896 67.21731567 68.1071167 C63.69650346 68.12993271 60.17642287 68.12106507 56.65559769 68.10522127 C52.97342182 68.09257379 49.29130915 68.10429915 45.60913086 68.1121521 C39.42517839 68.12125211 33.24152436 68.10925185 27.05761719 68.08544922 C19.90521422 68.05823688 12.75352381 68.06705082 5.60113811 68.09458125 C-0.53656018 68.11726162 -6.67404379 68.12047778 -12.81177044 68.1073879 C-16.47897207 68.09958732 -20.14583862 68.09856795 -23.8130188 68.11507034 C-27.90051565 68.1321789 -31.98678164 68.10847751 -36.07421875 68.08056641 C-37.29301727 68.09068756 -38.5118158 68.10080872 -39.76754761 68.11123657 C-41.43323288 68.09008789 -41.43323288 68.09008789 -43.13256836 68.06851196 C-44.09931992 68.06662683 -45.06607147 68.06474171 -46.06211853 68.06279945 C-48.484375 67.43359375 -48.484375 67.43359375 -50.29360962 65.03697777 C-51.50435691 62.38990707 -51.88147314 60.6944611 -51.91796875 57.80859375 C-51.92948975 56.94347168 -51.94101074 56.07834961 -51.95288086 55.18701172 C-51.93753296 53.82406982 -51.93753296 53.82406982 -51.921875 52.43359375 C-51.91357666 51.49531738 -51.90527832 50.55704102 -51.89672852 49.59033203 C-51.54883176 35.20647268 -46.50382604 23.69131946 -36.734375 13.12109375 C-32.23213839 8.86316455 -27.09930928 5.99201139 -21.484375 3.43359375 C-19.83163574 2.66354004 -19.83163574 2.66354004 -18.14550781 1.87792969 C-12.24461484 -0.30152966 -6.21663039 -0.01479522 0 0 Z " fill="#6F7276" transform="translate(82.484375,132.56640625)"/>
<path d="M0 0 C6.28591571 5.10253481 11.11486035 13.41286804 11.96923828 21.51708984 C12.09095763 23.89087172 12.12971464 26.2481129 12.125 28.625 C12.12258301 29.88703247 12.12258301 29.88703247 12.12011719 31.17456055 C11.90093613 42.33667799 8.09459438 50.83620337 0.5625 59.0625 C-5.38227582 64.71881624 -11.00171002 66.66262471 -19.1875 67 C-28.9915173 66.67284765 -35.83617659 62.84498201 -42.4921875 55.7578125 C-50.72519849 44.890238 -51.29705518 32.51855728 -50.25 19.4375 C-49.44521696 15.68031289 -48.23271841 12.71518137 -46.25 9.4375 C-45.8375 8.72464844 -45.425 8.01179688 -45 7.27734375 C-41.03215342 1.24666783 -35.16450275 -2.94071409 -28.296875 -5.20703125 C-18.39249742 -6.92706629 -8.41539027 -5.62619842 0 0 Z " fill="#6F7276" transform="translate(119.25,56.5625)"/>
</svg>
