<svg xmlns="http://www.w3.org/2000/svg" width="1408" height="736" viewBox="0 0 1408 736">
<g>
<path d="M 436.50 477.10 C428.85,473.56 425.00,467.59 425.00,459.25 C425.00,449.03 432.36,441.05 442.58,440.20 C451.23,439.48 460.94,443.96 458.12,447.36 C457.18,448.49 456.18,448.31 452.24,446.29 C441.21,440.62 430.01,447.28 430.01,459.50 C430.01,468.02 434.65,473.14 443.65,474.54 C446.64,475.01 448.55,474.58 452.18,472.64 C456.36,470.40 457.00,470.30 458.15,471.68 C459.23,472.98 459.06,473.53 457.14,475.09 C452.09,479.17 442.91,480.07 436.50,477.10 ZM 470.20 477.16 C465.38,474.59 463.01,470.42 463.01,464.50 C463.01,455.72 468.61,450.00 477.22,450.00 C485.05,450.01 492.00,456.82 492.00,464.50 C492.00,475.26 479.86,482.31 470.20,477.16 ZM 482.02 473.49 C485.71,471.58 487.00,469.17 487.00,464.20 C487.00,459.14 484.02,455.28 479.44,454.42 C468.69,452.41 462.70,465.36 471.11,472.44 C474.58,475.36 477.81,475.67 482.02,473.49 ZM 537.25 478.29 C536.33,477.96 536.00,474.14 536.00,463.92 C536.00,450.67 536.10,450.00 538.00,450.00 C539.30,450.00 540.00,450.67 540.00,451.89 C540.00,453.74 540.09,453.74 543.75,451.83 C548.85,449.16 555.29,449.84 558.87,453.41 C561.36,455.90 561.52,456.66 561.84,467.60 L 562.18 479.16 L 559.84 478.83 C557.58,478.51 557.49,478.13 557.22,468.30 C556.94,458.54 556.81,458.00 554.22,455.96 C550.93,453.37 545.72,453.84 542.56,456.99 C540.84,458.71 540.44,460.58 540.16,468.28 C539.81,477.74 539.42,479.09 537.25,478.29 ZM 579.50 477.90 C573.36,476.01 569.83,471.18 569.83,464.66 C569.83,456.75 574.02,451.52 581.29,450.34 C589.09,449.07 595.66,454.05 596.73,462.05 L 597.26 466.00 L 585.63 466.00 C579.19,466.00 574.00,466.41 574.00,466.92 C574.00,467.43 575.15,469.22 576.56,470.89 C579.88,474.83 584.58,475.77 589.46,473.45 C592.02,472.24 593.43,472.03 594.17,472.77 C595.65,474.25 594.32,475.97 590.41,477.60 C586.65,479.17 583.89,479.25 579.50,477.90 ZM 592.29 462.37 C593.25,461.42 590.23,456.19 588.06,455.03 C583.35,452.51 575.96,455.24 574.73,459.94 C574.25,461.77 574.80,461.95 581.85,462.26 C586.06,462.44 589.99,462.69 590.58,462.80 C591.18,462.91 591.95,462.72 592.29,462.37 ZM 610.03 477.21 C605.27,474.58 602.86,471.03 602.34,465.86 C601.15,454.21 613.50,446.24 624.02,451.87 C625.93,452.89 627.63,454.41 627.80,455.24 C628.22,457.36 625.14,458.29 623.42,456.56 C617.74,450.89 607.00,455.48 607.00,463.59 C607.00,472.77 615.73,478.15 622.28,473.00 C623.69,471.89 625.53,471.27 626.41,471.60 C628.58,472.44 628.42,473.26 625.53,475.97 C622.10,479.19 614.70,479.78 610.03,477.21 ZM 640.32 478.04 C636.83,476.56 636.00,473.77 636.00,463.57 L 636.00 454.00 L 633.43 454.00 C630.14,454.00 630.44,450.65 633.76,450.18 C635.59,449.92 636.00,449.22 636.00,446.36 C636.00,443.30 636.28,442.90 638.25,443.18 C639.97,443.43 640.57,444.26 640.81,446.75 C641.11,449.81 641.35,450.00 645.06,450.00 C648.33,450.00 649.00,450.34 649.00,452.00 C649.00,453.67 648.33,454.00 645.00,454.00 L 641.00 454.00 L 641.00 463.38 C641.00,473.75 641.97,475.73 646.51,474.59 C648.31,474.13 649.22,474.40 649.65,475.52 C649.98,476.38 650.02,477.31 649.75,477.59 C648.71,478.63 642.41,478.93 640.32,478.04 ZM 656.07 477.14 C654.76,474.69 657.01,471.41 659.38,472.31 C661.68,473.20 662.47,475.73 660.99,477.51 C659.31,479.54 657.27,479.38 656.07,477.14 ZM 694.25 476.90 C686.35,472.98 682.16,465.09 683.44,456.54 C685.38,443.59 700.31,436.10 712.44,441.97 C717.05,444.20 717.93,445.67 715.87,447.73 C715.02,448.58 713.98,448.31 711.78,446.68 C707.76,443.71 699.29,443.64 695.39,446.56 C690.28,450.37 688.50,453.72 688.50,459.50 C688.50,465.61 690.64,469.29 696.03,472.44 C700.63,475.14 708.10,475.04 711.90,472.23 C714.45,470.35 714.97,470.26 716.05,471.56 C717.04,472.75 716.93,473.42 715.49,475.01 C711.64,479.27 700.96,480.22 694.25,476.90 ZM 729.32 477.11 C724.31,474.77 721.83,470.55 721.83,464.37 C721.83,458.79 724.57,454.01 729.03,451.75 C741.92,445.25 755.68,458.31 749.25,470.93 C745.55,478.19 737.18,480.78 729.32,477.11 ZM 740.85 473.57 C744.03,471.93 746.00,468.22 746.00,463.89 C746.00,459.81 744.52,457.32 741.02,455.51 C736.66,453.26 733.41,453.67 729.77,456.92 C726.96,459.42 726.50,460.50 726.50,464.50 C726.50,468.50 726.96,469.58 729.77,472.08 C733.37,475.30 736.66,475.74 740.85,473.57 ZM 763.50 477.14 C758.17,473.85 756.65,471.34 756.26,465.21 C755.81,458.27 758.25,453.63 763.49,451.44 C768.14,449.50 771.85,449.63 776.29,451.89 L 780.00 453.78 L 780.00 445.89 C780.00,438.12 780.04,438.00 782.52,438.00 L 785.04 438.00 L 784.77 458.24 C784.52,476.90 784.36,478.50 782.68,478.82 C781.51,479.05 780.67,478.44 780.33,477.14 C779.80,475.11 779.78,475.11 776.16,477.05 C771.60,479.50 767.36,479.52 763.50,477.14 ZM 777.75 471.48 C780.92,467.82 780.85,461.10 777.59,457.31 C775.58,454.98 774.38,454.50 770.50,454.50 C766.62,454.50 765.42,454.98 763.41,457.31 C760.81,460.34 760.13,466.51 762.03,470.05 C764.87,475.36 773.68,476.17 777.75,471.48 ZM 801.50 477.59 C796.06,475.17 793.66,471.58 793.26,465.24 C792.80,458.17 795.25,453.63 800.74,451.34 C809.77,447.56 819.01,452.88 820.15,462.50 L 820.50 465.50 L 808.75 465.78 C802.29,465.94 797.00,466.44 797.00,466.90 C797.00,468.98 801.46,473.06 804.85,474.07 C807.90,474.99 809.32,474.89 812.49,473.57 C815.94,472.13 816.54,472.11 817.87,473.44 C819.20,474.77 818.86,475.16 814.93,476.95 C809.80,479.27 805.73,479.47 801.50,477.59 ZM 815.77 461.19 C815.99,460.54 814.81,458.66 813.16,457.00 C809.55,453.39 804.56,452.98 800.76,455.98 C798.54,457.72 796.66,461.33 797.53,462.19 C797.70,462.36 801.78,462.47 806.61,462.44 C812.42,462.40 815.51,461.98 815.77,461.19 ZM 826.93 477.42 C825.41,475.58 826.71,472.70 829.29,472.19 C831.55,471.74 833.50,475.69 831.95,477.56 C830.39,479.44 828.56,479.38 826.93,477.42 ZM 866.79 478.01 C857.07,475.08 851.23,464.29 853.93,454.25 C856.12,446.11 864.02,440.06 872.50,440.03 C881.18,439.99 888.78,444.15 886.05,447.44 C884.97,448.74 884.47,448.67 882.06,446.89 C872.00,439.45 856.87,448.24 858.27,460.71 C858.82,465.56 861.00,469.16 865.34,472.40 C869.29,475.35 877.87,475.21 882.04,472.13 C885.03,469.92 885.21,469.90 886.52,471.66 C887.72,473.27 887.62,473.72 885.70,475.24 C881.42,478.63 872.95,479.87 866.79,478.01 ZM 894.44 477.70 C894.16,476.98 894.06,470.57 894.22,463.46 C894.47,451.87 894.69,450.49 896.32,450.18 C897.48,449.95 898.33,450.55 898.67,451.84 C899.19,453.84 899.22,453.84 902.35,451.93 C906.49,449.40 909.00,449.44 909.00,452.02 C909.00,453.48 908.15,454.22 905.97,454.66 C900.52,455.75 899.00,459.02 899.00,469.63 C899.00,478.38 898.87,479.00 896.97,479.00 C895.85,479.00 894.71,478.41 894.44,477.70 ZM 921.22 477.01 C917.95,475.53 916.47,474.05 914.99,470.78 C912.50,465.31 912.51,462.63 915.05,457.41 C917.22,452.91 922.23,450.00 927.79,450.00 C934.28,450.00 941.00,456.73 941.00,463.23 L 941.00 466.00 L 929.50 466.00 C923.17,466.00 918.00,466.25 918.00,466.55 C918.00,468.79 921.48,472.97 924.12,473.89 C928.35,475.37 929.57,475.30 933.66,473.36 C936.08,472.21 937.43,472.03 938.17,472.77 C939.65,474.25 938.32,475.97 934.41,477.60 C929.89,479.49 926.32,479.33 921.22,477.01 ZM 936.00 460.95 C936.00,457.45 931.60,454.00 927.13,454.00 C923.94,454.00 922.68,454.60 920.59,457.08 C916.41,462.05 915.96,461.83 932.75,462.81 C935.42,462.97 936.00,462.63 936.00,460.95 ZM 951.03 477.72 C949.67,477.03 947.89,475.27 947.06,473.80 C943.55,467.55 949.75,462.00 960.25,462.00 C966.84,462.00 967.68,460.59 963.55,456.45 C960.74,453.65 956.02,453.22 951.84,455.40 C949.32,456.72 947.00,456.00 947.00,453.91 C947.00,452.77 954.82,450.00 958.05,450.00 C962.13,450.00 967.61,452.41 968.86,454.74 C969.42,455.79 969.97,461.57 970.07,467.57 C970.24,477.15 970.05,478.54 968.56,478.84 C967.52,479.04 966.65,478.39 966.33,477.16 C965.81,475.16 965.78,475.16 962.65,477.07 C959.03,479.28 954.60,479.53 951.03,477.72 ZM 963.27 473.25 C964.13,472.29 965.16,470.24 965.54,468.70 L 966.24 465.90 L 959.49 466.20 C953.99,466.44 952.48,466.88 951.38,468.55 C950.23,470.29 950.26,470.92 951.57,472.80 C953.56,475.63 960.86,475.92 963.27,473.25 ZM 983.45 476.55 C981.17,474.27 981.00,473.38 981.00,464.05 L 981.00 454.00 L 978.50 454.00 C976.67,454.00 976.00,453.47 976.00,452.00 C976.00,450.53 976.67,450.00 978.50,450.00 C980.69,450.00 981.00,449.57 981.00,446.50 C981.00,443.67 981.38,443.00 983.00,443.00 C984.62,443.00 985.00,443.67 985.00,446.50 C985.00,449.98 985.02,450.00 989.50,450.00 C993.33,450.00 994.00,450.30 994.00,452.00 C994.00,453.70 993.33,454.00 989.50,454.00 L 985.00 454.00 L 985.00 462.93 C985.00,473.15 986.15,475.30 991.34,474.80 C995.18,474.43 996.40,477.39 992.80,478.36 C988.50,479.51 985.91,479.01 983.45,476.55 ZM 1008.64 477.97 C997.28,474.57 995.51,456.99 1006.00,451.75 C1014.86,447.32 1024.82,452.41 1026.56,462.25 L 1027.22 466.00 L 1015.09 466.00 L 1002.95 466.00 L 1004.54 469.08 C1005.48,470.89 1007.65,472.80 1009.82,473.71 C1013.16,475.13 1013.91,475.12 1018.00,473.67 C1021.90,472.28 1022.69,472.26 1023.93,473.50 C1025.17,474.75 1024.78,475.20 1020.93,476.95 C1016.20,479.09 1013.21,479.34 1008.64,477.97 ZM 1014.58 462.00 C1022.95,462.00 1023.79,461.06 1019.36,456.64 C1015.79,453.07 1009.93,452.98 1006.45,456.45 C1003.64,459.27 1003.03,463.59 1005.58,462.61 C1006.45,462.27 1010.50,462.00 1014.58,462.00 ZM 1033.20 477.80 C1031.51,476.11 1031.71,473.33 1033.58,472.61 C1036.12,471.63 1036.86,471.88 1038.03,474.06 C1039.92,477.59 1036.01,480.61 1033.20,477.80 ZM 499.22 464.25 C499.49,450.85 499.56,450.49 501.75,450.18 C503.50,449.93 504.00,450.35 504.00,452.09 C504.00,454.24 504.06,454.26 505.99,452.51 C508.52,450.22 516.66,449.48 520.00,451.22 C524.31,453.47 526.00,458.41 526.00,468.75 C526.00,477.95 525.99,478.00 523.50,478.00 C521.01,478.00 521.00,477.97 521.00,468.45 C521.00,459.65 520.81,458.72 518.55,456.45 C515.10,453.01 510.65,453.19 506.92,456.92 C504.12,459.72 504.00,460.22 504.00,468.92 C504.00,477.97 503.99,478.00 501.47,478.00 L 498.94 478.00 L 499.22 464.25 ZM 615.45 400.55 C612.42,397.51 612.27,393.20 615.07,389.63 C616.71,387.55 618.01,387.00 621.25,387.00 C624.94,387.00 626.05,386.33 632.43,380.25 C636.33,376.54 642.10,371.11 645.26,368.19 L 651.00 362.89 L 651.00 356.52 C651.00,350.76 651.26,349.94 653.75,347.98 L 656.50 345.81 L 656.82 355.66 L 657.15 365.50 L 643.34 378.71 C631.49,390.05 629.52,392.37 629.38,395.17 C629.03,402.06 620.33,405.42 615.45,400.55 ZM 623.50 394.99 C623.50,393.21 622.89,392.41 621.38,392.20 C618.84,391.83 617.44,394.62 619.14,396.67 C620.93,398.83 623.50,397.84 623.50,394.99 ZM 794.45 400.55 C792.85,398.94 792.00,396.95 791.99,394.80 C791.98,391.86 790.52,390.15 778.55,379.02 L 765.12 366.54 L 764.81 356.02 C764.64,350.23 764.56,345.37 764.62,345.21 C764.69,345.05 766.16,346.10 767.87,347.55 C770.78,350.00 771.00,350.64 771.06,356.84 L 771.12 363.50 L 783.71 375.32 C794.28,385.25 796.68,387.05 798.66,386.55 C802.01,385.71 806.83,388.50 807.69,391.77 C808.77,395.88 808.16,398.26 805.39,400.75 C802.06,403.75 797.57,403.66 794.45,400.55 ZM 802.50 395.00 C802.50,393.17 801.90,392.41 800.25,392.18 C798.89,391.99 797.75,392.49 797.39,393.43 C796.39,396.02 797.79,398.17 800.25,397.82 C801.90,397.59 802.50,396.83 802.50,395.00 ZM 652.36 398.00 C649.60,396.90 647.00,393.18 647.00,390.33 C647.00,386.60 651.16,382.71 655.30,382.56 C658.54,382.45 660.77,380.74 675.81,366.82 L 692.68 351.20 L 698.59 353.21 C705.53,355.56 717.59,355.32 724.94,352.69 L 729.38 351.10 L 738.94 360.28 C744.20,365.33 751.50,372.34 755.16,375.87 C760.97,381.45 762.36,382.30 766.01,382.51 C773.65,382.94 777.36,390.14 772.72,395.54 C767.87,401.18 758.86,398.25 758.61,390.95 C758.51,388.14 756.52,385.85 743.19,373.26 C730.40,361.18 727.52,358.91 725.69,359.46 C717.92,361.83 709.32,362.27 701.67,360.70 L 693.83 359.09 L 678.42 373.30 C663.83,386.74 663.00,387.70 663.00,391.23 C663.00,394.00 662.43,395.32 660.75,396.37 C657.46,398.45 654.78,398.97 652.36,398.00 ZM 658.00 390.61 C658.00,387.71 655.83,386.67 653.43,388.42 C651.03,390.18 652.28,393.00 655.47,393.00 C657.47,393.00 658.00,392.50 658.00,390.61 ZM 769.00 390.50 C769.00,388.52 768.49,388.00 766.58,388.00 C765.25,388.00 763.97,388.56 763.73,389.25 C762.96,391.45 764.15,393.00 766.61,393.00 C768.49,393.00 769.00,392.47 769.00,390.50 ZM 896.50 393.59 C876.92,389.76 863.18,380.24 855.90,365.45 C849.61,352.66 849.67,353.31 849.26,297.22 L 848.88 245.93 L 859.49 246.22 L 870.10 246.50 L 870.61 293.50 C870.90,321.05 871.55,342.57 872.18,345.50 C875.44,360.70 885.24,370.71 900.11,374.01 C908.19,375.80 922.06,374.85 929.49,371.98 C938.01,368.70 945.86,360.68 949.03,352.00 C951.40,345.53 951.41,345.24 951.77,295.75 L 952.12 246.00 L 963.13 246.00 L 974.13 246.00 L 973.76 296.75 C973.34,352.52 973.34,352.54 966.88,365.83 C960.78,378.36 947.57,388.34 931.50,392.54 C923.09,394.74 905.13,395.28 896.50,393.59 ZM 1040.02 392.93 C1025.68,389.83 1015.46,385.48 1006.83,378.80 L 1003.15 375.95 L 1006.69 368.23 C1008.63,363.98 1010.57,360.13 1010.99,359.67 C1011.42,359.21 1013.99,360.44 1016.72,362.39 C1029.68,371.71 1042.38,375.46 1061.00,375.48 C1072.66,375.50 1075.44,375.17 1081.42,373.11 C1097.14,367.69 1103.09,355.29 1095.49,343.81 C1091.70,338.07 1082.09,334.11 1056.50,327.73 C1031.55,321.51 1022.81,317.91 1015.92,311.01 C1009.05,304.14 1006.71,297.17 1007.18,284.97 C1007.64,273.18 1010.45,266.70 1018.34,259.24 C1029.35,248.83 1041.98,244.84 1064.00,244.83 C1079.63,244.82 1088.02,246.14 1099.29,250.38 C1107.35,253.42 1113.98,257.13 1113.99,258.61 C1114.01,260.46 1106.93,275.15 1106.19,274.81 C1105.81,274.63 1102.74,273.05 1099.37,271.29 C1086.02,264.33 1065.47,261.34 1051.93,264.40 C1042.38,266.55 1036.43,269.62 1032.58,274.38 C1029.83,277.78 1029.50,278.90 1029.50,284.84 C1029.50,290.21 1029.95,292.13 1031.82,294.76 C1034.96,299.15 1047.88,305.23 1060.00,308.02 C1102.24,317.72 1113.29,323.46 1118.97,338.64 C1121.83,346.28 1121.77,358.87 1118.84,366.71 C1114.74,377.65 1102.20,387.32 1085.99,392.04 C1074.82,395.29 1052.90,395.71 1040.02,392.93 ZM 296.00 319.00 L 296.00 246.00 L 305.43 246.00 L 314.86 246.00 L 339.22 275.25 C352.62,291.34 372.56,315.41 383.54,328.74 L 403.50 352.99 L 403.76 299.46 L 404.02 245.93 L 414.76 246.22 L 425.50 246.50 L 425.76 319.25 L 426.01 392.00 L 416.66 392.00 L 407.32 392.00 L 383.41 362.80 C351.08,323.31 318.86,284.56 318.11,284.25 C317.78,284.11 317.62,308.30 317.77,338.00 L 318.03 392.00 L 307.02 392.00 L 296.00 392.00 L 296.00 319.00 ZM 469.45 390.72 C469.18,390.02 469.08,357.29 469.23,317.97 L 469.50 246.50 L 523.00 246.50 L 576.50 246.50 L 576.79 255.75 L 577.08 265.00 L 534.02 265.00 L 490.96 265.00 L 491.23 286.25 L 491.50 307.50 L 529.25 307.76 L 567.00 308.02 L 567.00 317.00 L 567.00 325.98 L 529.25 326.24 L 491.50 326.50 L 491.50 349.50 L 491.50 372.50 L 535.75 372.76 L 580.00 373.02 L 580.00 382.51 L 580.00 392.00 L 524.97 392.00 C481.28,392.00 469.84,391.74 469.45,390.72 ZM 621.50 370.85 C618.36,369.13 617.00,366.88 617.00,363.42 C617.00,358.56 619.91,355.64 624.88,355.51 C628.82,355.41 629.93,354.58 645.58,339.99 C658.93,327.54 662.01,324.17 661.55,322.53 C660.16,317.54 659.85,308.94 660.88,304.11 C661.50,301.21 661.67,298.28 661.26,297.60 C660.84,296.91 653.45,289.75 644.82,281.68 C630.04,267.83 628.92,267.00 625.15,267.00 C620.43,267.00 617.00,263.56 617.00,258.82 C617.00,252.99 624.46,249.03 629.93,251.96 C632.06,253.10 634.45,258.39 633.71,260.32 C633.39,261.15 640.22,268.26 651.50,278.84 L 669.81 296.00 L 668.40 300.66 C666.58,306.71 666.62,315.42 668.49,321.59 C669.31,324.29 669.98,326.52 669.99,326.55 C670.00,326.57 661.67,334.21 651.50,343.51 C636.23,357.47 633.00,360.90 633.00,363.13 C633.00,367.20 632.05,368.92 628.93,370.54 C625.59,372.26 624.20,372.32 621.50,370.85 ZM 626.42 366.39 C628.49,365.60 628.46,361.39 626.37,360.59 C623.16,359.36 620.74,363.34 623.20,365.80 C624.60,367.20 624.40,367.17 626.42,366.39 ZM 628.41 260.37 C629.11,258.55 627.41,256.00 625.50,256.00 C623.63,256.00 621.69,258.76 622.36,260.49 C623.13,262.51 627.62,262.42 628.41,260.37 ZM 792.32 370.81 C789.85,369.61 787.49,364.76 788.33,362.58 C788.70,361.61 782.70,355.37 770.37,343.91 C754.83,329.46 751.96,326.35 752.51,324.59 C753.89,320.24 754.23,305.96 753.07,301.36 L 751.89 296.67 L 758.19 290.27 C761.66,286.76 769.74,279.13 776.13,273.32 C786.70,263.74 787.82,262.39 788.32,258.65 C788.94,254.05 791.83,251.00 795.56,251.00 C803.53,251.00 807.63,258.84 802.67,264.60 C800.87,266.68 799.38,267.34 796.24,267.41 C792.38,267.49 791.17,268.40 775.54,282.94 C763.00,294.59 759.12,298.75 759.70,299.94 C760.12,300.80 760.47,307.02 760.48,313.77 L 760.50 326.04 L 769.50 334.14 C774.45,338.59 781.67,345.34 785.54,349.13 C791.99,355.46 792.85,355.98 795.75,355.40 C798.40,354.87 799.42,355.26 801.96,357.81 C805.87,361.72 805.91,365.24 802.08,369.08 C799.04,372.11 796.09,372.64 792.32,370.81 ZM 799.43 364.63 C800.27,363.27 800.09,362.58 798.65,361.51 C795.23,358.97 791.68,362.53 794.66,365.52 C796.49,367.35 797.93,367.08 799.43,364.63 ZM 799.28 260.75 C799.91,259.01 798.20,256.00 796.59,256.00 C794.60,256.00 792.88,258.51 793.59,260.37 C794.32,262.28 798.63,262.57 799.28,260.75 ZM 663.45 365.91 C662.30,364.06 664.31,363.28 668.92,363.77 L 673.33 364.24 L 670.05 365.62 C666.10,367.28 664.34,367.36 663.45,365.91 ZM 754.25 365.75 C754.88,363.86 758.00,363.59 758.00,365.43 C758.00,366.35 757.15,367.00 755.92,367.00 C754.69,367.00 754.01,366.48 754.25,365.75 ZM 749.58 364.36 C749.04,362.93 749.18,362.89 750.73,364.08 C751.70,364.82 752.69,365.56 752.92,365.72 C753.15,365.87 752.63,366.00 751.77,366.00 C750.92,366.00 749.93,365.26 749.58,364.36 ZM 663.00 355.87 C662.99,351.58 663.21,351.30 675.22,339.92 L 687.45 328.33 L 685.48 323.95 C682.75,317.91 682.73,305.14 685.43,299.16 L 687.36 294.88 L 674.73 282.19 C662.32,269.71 662.12,269.44 662.84,266.01 L 663.58 262.51 L 677.85 275.89 L 692.11 289.27 L 697.73 286.43 C705.85,282.32 714.39,282.42 723.05,286.71 L 729.35 289.83 L 742.74 277.17 C750.10,270.20 756.77,264.35 757.56,264.18 C758.60,263.94 759.00,264.83 759.00,267.34 C759.00,270.50 757.84,271.91 746.27,282.82 L 733.55 294.83 L 735.28 298.46 C739.43,307.17 739.44,317.30 735.30,325.36 L 733.83 328.22 L 746.42 340.19 C757.73,350.96 759.00,352.51 759.00,355.58 C759.00,357.46 758.51,359.00 757.91,359.00 C756.84,359.00 750.19,353.04 736.38,339.69 L 729.25 332.80 L 725.35 335.38 C717.38,340.66 705.30,340.71 696.43,335.51 L 692.20 333.04 L 679.33 345.27 C661.78,361.95 663.00,361.16 663.00,355.87 ZM 719.28 329.62 C726.24,326.64 730.14,320.07 730.14,311.30 C730.14,301.86 724.34,294.33 715.31,292.06 C702.28,288.78 691.00,297.87 691.00,311.65 C691.00,322.76 699.19,331.00 710.23,331.00 C713.44,331.00 717.51,330.38 719.28,329.62 ZM 654.25 275.42 C651.17,272.99 651.00,272.51 650.98,266.18 L 650.96 259.50 L 637.95 247.53 C626.02,236.56 624.64,235.58 621.49,235.85 C614.25,236.48 610.45,228.08 615.37,222.36 C620.39,216.52 629.94,220.39 630.04,228.31 C630.08,231.10 631.74,233.04 643.48,243.88 L 656.88 256.26 L 657.19 267.13 C657.36,273.11 657.50,278.00 657.50,277.99 C657.50,277.98 656.04,276.83 654.25,275.42 ZM 623.89 229.63 C625.54,227.65 624.17,225.00 621.50,225.00 C620.24,225.00 618.93,225.73 618.59,226.63 C617.89,228.45 619.59,231.00 621.50,231.00 C622.19,231.00 623.27,230.38 623.89,229.63 ZM 764.64 267.16 L 764.78 256.59 L 778.30 244.05 C790.63,232.61 791.83,231.19 791.91,227.94 C792.04,223.01 795.05,220.00 799.86,220.00 C804.83,220.00 808.00,223.23 808.00,228.28 C808.00,233.14 804.94,236.00 799.73,236.00 C796.13,236.00 794.90,236.89 783.43,247.75 L 771.03 259.50 L 771.02 265.32 C771.00,271.81 770.14,274.02 766.79,276.22 L 764.50 277.72 L 764.64 267.16 ZM 802.50 228.00 C802.50,226.17 801.90,225.41 800.25,225.18 C798.89,224.99 797.75,225.49 797.39,226.43 C796.39,229.02 797.79,231.17 800.25,230.82 C801.90,230.59 802.50,229.83 802.50,228.00 ZM 682.78 262.25 C677.13,256.96 669.70,249.93 666.28,246.62 C660.85,241.38 659.52,240.59 655.81,240.40 C652.61,240.24 650.99,239.53 649.28,237.54 C644.48,231.96 648.50,224.00 656.12,224.00 C659.35,224.00 664.31,229.58 663.74,232.56 C663.33,234.73 665.35,237.00 678.82,249.56 C688.42,258.51 694.92,263.86 695.79,263.53 C696.56,263.23 700.22,262.52 703.92,261.94 C710.26,260.96 717.15,261.47 725.19,263.51 C727.62,264.12 729.37,262.81 742.86,250.34 C756.19,238.01 757.83,236.14 757.91,233.17 C757.97,230.88 758.94,228.91 761.04,226.81 C763.60,224.25 764.59,223.87 767.29,224.41 C771.82,225.31 774.40,228.25 774.40,232.50 C774.40,237.31 771.27,240.36 766.22,240.44 C762.66,240.50 761.14,241.66 745.61,256.33 C733.02,268.20 728.42,271.97 727.17,271.43 C718.42,267.68 704.33,267.17 696.76,270.33 L 693.06 271.87 L 682.78 262.25 ZM 769.00 232.45 C769.00,229.48 767.59,228.61 765.02,229.99 C762.60,231.28 762.48,232.34 764.53,234.39 C766.56,236.42 769.00,235.36 769.00,232.45 ZM 658.00 232.47 C658.00,229.43 655.42,228.15 653.39,230.19 C651.39,232.18 652.69,235.00 655.61,235.00 C657.50,235.00 658.00,234.47 658.00,232.47 ZM 748.00 258.87 C748.00,257.92 751.11,257.03 755.50,256.71 C757.59,256.56 758.50,256.95 758.50,258.00 C758.50,259.13 757.20,259.53 753.25,259.60 C750.36,259.66 748.00,259.33 748.00,258.87 Z" fill="rgba(0,0,0,1)"/>
</g>
</svg>